<svg width="33" height="32" viewBox="0 0 33 32" fill="none" xmlns="http://www.w3.org/2000/svg">
<g opacity="0.4">
<path d="M25.8453 13.4869C25.8324 13.4869 25.8206 13.4905 25.8078 13.4906C26.0447 12.9427 26.1774 12.3392 26.1774 11.7043C26.1774 9.21472 24.1591 7.19643 21.6696 7.19643C20.7897 7.19643 19.9714 7.45251 19.2776 7.88845C18.339 5.60734 16.0969 3.99996 13.4772 3.99996C10.0132 3.99996 7.20518 6.80796 7.20518 10.272C7.20518 10.5338 7.22638 10.7903 7.25757 11.0436C7.2399 11.0434 7.22285 11.041 7.20518 11.041C4.88275 11.041 2.99988 12.9238 2.99988 15.2464C2.99988 17.5688 4.88275 19.4516 7.20518 19.4516H25.8453C27.4925 19.4516 28.8277 18.1164 28.8277 16.4693C28.8277 14.8221 27.4925 13.4869 25.8453 13.4869Z" fill="white"/>
<path d="M11.2646 26.7994C10.758 27.8533 9.4929 28.2971 8.43898 27.7905C7.38506 27.2839 6.94129 26.0188 7.44789 24.9649C7.95465 23.9109 11.2307 21.9825 11.2307 21.9825C11.2307 21.9825 11.7712 25.7455 11.2646 26.7994Z" fill="white"/>
<path d="M16.5297 26.7994C16.0232 27.8533 14.7581 28.2971 13.7041 27.7905C12.6501 27.2839 12.2064 26.0188 12.7131 24.9649C13.2198 23.9109 16.4959 21.9825 16.4959 21.9825C16.4959 21.9825 17.0364 25.7455 16.5297 26.7994Z" fill="white"/>
<path d="M21.8692 26.7994C21.3626 27.8533 20.0975 28.2971 19.0435 27.7905C17.9896 27.2839 17.546 26.0188 18.0524 24.9649C18.5592 23.9109 21.8352 21.9825 21.8352 21.9825C21.8352 21.9825 22.3758 25.7455 21.8692 26.7994Z" fill="white"/>
</g>
</svg>
